<mxfile host="65bd71144e">
    <diagram id="-3uPQN7wGYH7QftNhOzi" name="Page-1">
        <mxGraphModel dx="2341" dy="887" grid="1" gridSize="10" guides="1" tooltips="1" connect="1" arrows="1" fold="1" page="1" pageScale="1" pageWidth="850" pageHeight="1100" math="0" shadow="0">
            <root>
                <mxCell id="0"/>
                <mxCell id="1" parent="0"/>
                <mxCell id="2" value="&lt;ol&gt;&lt;li&gt;&lt;p&gt;&lt;strong&gt;Start&lt;/strong&gt;&lt;/p&gt;&lt;ul&gt;&lt;li&gt;Applikationen startar.&lt;/li&gt;&lt;/ul&gt;&lt;/li&gt;&lt;li&gt;&lt;p&gt;&lt;strong&gt;Användarinmatning (Initial Val)&lt;/strong&gt;&lt;/p&gt;&lt;ul&gt;&lt;li&gt;Användaren gör ett val från huvudmenyn:&lt;ul&gt;&lt;li&gt;Exempel på alternativ:&lt;ul&gt;&lt;li&gt;Registrera transaktion&lt;/li&gt;&lt;li&gt;Visa transaktioner&lt;/li&gt;&lt;li&gt;Beräkna saldo&lt;/li&gt;&lt;li&gt;Radera transaktion&lt;/li&gt;&lt;li&gt;Testa budget&lt;/li&gt;&lt;li&gt;Avsluta applikation&lt;/li&gt;&lt;/ul&gt;&lt;/li&gt;&lt;/ul&gt;&lt;/li&gt;&lt;/ul&gt;&lt;/li&gt;&lt;li&gt;&lt;p&gt;&lt;strong&gt;Val av funktion&lt;/strong&gt;&lt;/p&gt;&lt;/li&gt;&lt;ul&gt;&lt;li&gt;&lt;p&gt;&lt;strong&gt;Registreratransaktion&lt;/strong&gt;:&lt;/p&gt;&lt;ul&gt;&lt;li&gt;Användaren matar in data för en ny transaktion.&lt;/li&gt;&lt;li&gt;Data valideras (t.ex. att beloppet är ett nummer, kategorin är korrekt).&lt;/li&gt;&lt;li&gt;Transaktionen sparas i listan.&lt;/li&gt;&lt;li&gt;Lista sparas till JSON-fil.&lt;/li&gt;&lt;/ul&gt;&lt;/li&gt;&lt;li&gt;&lt;p&gt;&lt;strong&gt;Visa transaktioner&lt;/strong&gt;:&lt;/p&gt;&lt;ul&gt;&lt;li&gt;JSON-filen laddas om den finns.&lt;/li&gt;&lt;li&gt;Om filen finns:&lt;ul&gt;&lt;li&gt;Filen deserialiseras till en lista av transaktioner.&lt;/li&gt;&lt;li&gt;Transaktionerna visas för användaren.&lt;/li&gt;&lt;/ul&gt;&lt;/li&gt;&lt;li&gt;Om filen inte finns:&lt;ul&gt;&lt;li&gt;Skriv ut felmeddelande.&lt;/li&gt;&lt;li style=&quot;border-color: var(--border-color);&quot;&gt;&lt;p style=&quot;border-color: var(--border-color);&quot;&gt;&lt;strong style=&quot;border-color: var(--border-color);&quot;&gt;Beräkna saldo&lt;/strong&gt;&lt;/p&gt;&lt;ul style=&quot;border-color: var(--border-color);&quot;&gt;&lt;li style=&quot;border-color: var(--border-color);&quot;&gt;&lt;span style=&quot;background-color: initial;&quot;&gt;JSON-Fil laddas in om den finns.&lt;/span&gt;&lt;br&gt;&lt;/li&gt;&lt;li style=&quot;border-color: var(--border-color);&quot;&gt;&lt;span style=&quot;background-color: initial;&quot;&gt;Om filen finns:&lt;/span&gt;&lt;/li&gt;&lt;li style=&quot;border-color: var(--border-color);&quot;&gt;&lt;span style=&quot;background-color: initial;&quot;&gt;Inkomst-transaktioner subtraheras mot utgift-transaktioner&lt;/span&gt;&lt;/li&gt;&lt;li style=&quot;border-color: var(--border-color);&quot;&gt;&lt;span style=&quot;background-color: initial;&quot;&gt;Summan skrivs ut till konsoll&lt;/span&gt;&lt;/li&gt;&lt;li style=&quot;border-color: var(--border-color);&quot;&gt;&lt;span style=&quot;background-color: initial;&quot;&gt;Om filen inte finns:&lt;/span&gt;&lt;/li&gt;&lt;li style=&quot;border-color: var(--border-color);&quot;&gt;Skriv ut felmeddelande&lt;/li&gt;&lt;/ul&gt;&lt;/li&gt;&lt;/ul&gt;&lt;/li&gt;&lt;/ul&gt;&lt;/li&gt;&lt;li&gt;&lt;p&gt;&lt;strong&gt;Radera transaktion&lt;/strong&gt;:&lt;/p&gt;&lt;ul&gt;&lt;li&gt;JSON-Fil laddas in om den finns&lt;/li&gt;&lt;li&gt;Befintliga transaktioner skrivs ut till konsoll med tillhörande index&lt;/li&gt;&lt;li&gt;Användaren väljer vilken transaktion som ska raderas via index.&lt;/li&gt;&lt;li&gt;Transaktionen tas bort från listan.&lt;/li&gt;&lt;li&gt;Den uppdaterade listan sparas till JSON-filen.&lt;/li&gt;&lt;/ul&gt;&lt;/li&gt;&lt;li&gt;&lt;p&gt;&lt;b&gt;Testa budget&lt;/b&gt;:&lt;/p&gt;&lt;/li&gt;&lt;ul&gt;&lt;li&gt;JSON-fil laddas in om den finns&lt;/li&gt;&lt;li&gt;Om fil finns:&lt;/li&gt;&lt;li&gt;Alla utgift-transaktioner förses med procentuell höjning&lt;/li&gt;&lt;li&gt;Total inkomst subtraheras mot procentuellt höjda utgifter&lt;/li&gt;&lt;li&gt;Nytt saldo skrivs ut till konsoll&lt;/li&gt;&lt;li&gt;Om fil inte finns:&lt;/li&gt;&lt;li&gt;Skriv ut felmeddelande.&lt;/li&gt;&lt;/ul&gt;&lt;/ul&gt;&lt;/ol&gt;&lt;div&gt;&lt;br&gt;&lt;/div&gt;&lt;ol&gt;&lt;ul&gt;&lt;ul&gt;&lt;li&gt;&lt;strong style=&quot;background-color: initial;&quot;&gt;Avsluta applikation&lt;/strong&gt;&lt;/li&gt;&lt;li&gt;Applikationen avslutas .&lt;/li&gt;&lt;/ul&gt;&lt;/ul&gt;&lt;/ol&gt;" style="text;whiteSpace=wrap;html=1;" vertex="1" parent="1">
                    <mxGeometry x="-720" y="40" width="560" height="950" as="geometry"/>
                </mxCell>
            </root>
        </mxGraphModel>
    </diagram>
</mxfile>